PathFileType	3	(X/Y/Z)	dance_move_1__view1_aligned.trc
DataRate	CameraRate	NumFrames	NumMarkers	Units	OrigDataRate	OrigDataStartFrame	OrigNumFrames
100.0	100.0	10	19	mm	100.0	260	890
Frame#	Time	pelvis			neck			head			hip_left			hip_right			knee_left			knee_right			ankle_left			ankle_right			heel_left			heel_right			toe_left			toe_right			shoulder_left			shoulder_right			elbow_left			elbow_right			wrist_left			wrist_right			
		X1	Y1	Z1	X2	Y2	Z2	X3	Y3	Z3	X4	Y4	Z4	X5	Y5	Z5	X6	Y6	Z6	X7	Y7	Z7	X8	Y8	Z8	X9	Y9	Z9	X10	Y10	Z10	X11	Y11	Z11	X12	Y12	Z12	X13	Y13	Z13	X14	Y14	Z14	X15	Y15	Z15	X16	Y16	Z16	X17	Y17	Z17	X18	Y18	Z18	X19	Y19	Z19	
260	2.59000	116.926785	721.275355	96.715473	78.688608	1162.343455	-223.945369	75.101329	1190.216533	-392.324740	39.943385	723.785373	105.758870	193.910050	718.765339	87.672216	-94.781620	486.124145	-205.022360	266.397300	479.784874	-244.050518	-59.192894	170.872230	16.262373	273.953718	140.170030	-59.003757	-46.097501	134.281188	59.415079	273.075794	104.901254	-12.915518	-137.388247	104.978165	-135.932723	283.425732	51.292838	-227.581279	-102.113757	1117.368322	-167.583315	262.924871	1116.304019	-209.550769	-107.454678	839.912382	-164.145393	250.842353	835.536547	-256.057848	12.121893	648.380694	-270.855022	188.394492	616.804403	-339.161789
261	2.60000	113.371613	722.243321	101.208225	76.055614	1162.688510	-220.069631	72.769193	1190.851542	-388.527202	36.676341	724.767063	109.986542	190.066768	719.719581	92.430029	-92.647019	485.381680	-202.995995	257.900809	480.323431	-241.054789	-61.887037	169.706607	19.280411	270.535730	140.014717	-56.060890	-49.593022	133.070187	62.781012	270.490049	104.733603	-9.817817	-138.507518	103.943374	-133.951688	279.670013	50.545503	-224.442857	-104.801076	1116.972422	-164.489535	260.332959	1116.672150	-205.907990	-105.639956	839.370008	-161.597351	243.798841	836.111775	-253.601143	16.658130	648.492795	-266.442647	175.248034	619.233371	-337.392494
262	2.61000	109.816442	723.211288	105.700976	73.422620	1163.033564	-216.193893	70.437057	1191.486551	-384.729664	33.409297	725.748753	114.214214	186.223486	720.673823	97.187843	-90.512417	484.639216	-200.969630	249.404318	480.861989	-238.059060	-64.581179	168.540984	22.298450	267.117742	139.859404	-53.118023	-53.088544	131.859186	66.146946	267.904303	104.565952	-6.720116	-139.626789	102.908583	-131.970652	275.914295	49.798168	-221.304434	-107.488394	1116.576521	-161.395755	257.741047	1117.040282	-202.265210	-103.825234	838.827633	-159.049309	236.755330	836.687002	-251.144438	21.194367	648.604897	-262.030273	162.101577	621.662338	-335.623199
263	2.62000	106.261270	724.179254	110.193728	70.789625	1163.378619	-212.318154	68.104921	1192.121560	-380.932127	30.142252	726.730443	118.441886	182.380204	721.628066	101.945656	-88.377815	483.896751	-198.943265	240.907827	481.400546	-235.063331	-67.275321	167.375361	25.316488	263.699753	139.704091	-50.175156	-56.584066	130.648185	69.512879	265.318558	104.398301	-3.622415	-140.746061	101.873793	-129.989617	272.158577	49.050832	-218.166012	-110.175713	1116.180621	-158.301976	255.149135	1117.408413	-198.622431	-102.010512	838.285258	-156.501266	229.711818	837.262230	-248.687733	25.730603	648.716998	-257.617898	148.955120	624.091306	-333.853904
264	2.63000	102.706099	725.147220	114.686479	68.156631	1163.723673	-208.442416	65.772785	1192.756569	-377.134589	26.875208	727.712133	122.669558	178.536923	722.582308	106.703470	-86.243213	483.154286	-196.916901	232.411336	481.939103	-232.067602	-69.969464	166.209738	28.334527	260.281765	139.548778	-47.232289	-60.079588	129.437184	72.878813	262.732813	104.230650	-0.524713	-141.865332	100.839002	-128.008582	268.402859	48.303497	-215.027589	-112.863032	1115.784721	-155.208196	252.557223	1117.776545	-194.979651	-100.195790	837.742884	-153.953224	222.668307	837.837457	-246.231028	30.266840	648.829100	-253.205523	135.808663	626.520274	-332.084609
265	2.64000	99.150928	726.115186	119.179230	65.523637	1164.068727	-204.566678	63.440649	1193.391579	-373.337051	23.608164	728.693823	126.897230	174.693641	723.536550	111.461283	-84.108611	482.411821	-194.890536	223.914845	482.477660	-229.071873	-72.663606	165.044115	31.352566	256.863777	139.393465	-44.289421	-63.575110	128.226183	76.244746	260.147067	104.062999	2.572988	-142.984603	99.804211	-126.027546	264.647140	47.556161	-211.889167	-115.550351	1115.388821	-152.114416	249.965311	1118.144676	-191.336871	-98.381069	837.200509	-151.405182	215.624795	838.412685	-243.774323	34.803076	648.941202	-248.793149	122.662206	628.949241	-330.315314
266	2.65000	95.595756	727.083153	123.671982	62.890642	1164.413782	-200.690939	61.108513	1194.026588	-369.539513	20.341120	729.675513	131.124902	170.850359	724.490793	116.219097	-81.974010	481.669356	-192.864171	215.418354	483.016218	-226.076145	-75.357748	163.878492	34.370604	253.445789	139.238152	-41.346554	-67.070632	127.015182	79.610680	257.561322	103.895348	5.670689	-144.103874	98.769420	-124.046511	260.891422	46.808826	-208.750744	-118.237669	1114.992921	-149.020637	247.373399	1118.512808	-187.694092	-96.566347	836.658135	-148.857140	208.581283	838.987912	-241.317618	39.339313	649.053303	-244.380774	109.515749	631.378209	-328.546019
267	2.66000	92.040585	728.051119	128.164733	60.257648	1164.758836	-196.815201	58.776377	1194.661597	-365.741975	17.074075	730.657203	135.352574	167.007077	725.445035	120.976910	-79.839408	480.926892	-190.837806	206.921862	483.554775	-223.080416	-78.051891	162.712869	37.388643	250.027801	139.082840	-38.403687	-70.566153	125.804182	82.976613	254.975577	103.727696	8.768390	-145.223146	97.734630	-122.065476	257.135704	46.061491	-205.612322	-120.924988	1114.597021	-145.926857	244.781486	1118.880939	-184.051312	-94.751625	836.115760	-146.309098	201.537772	839.563140	-238.860913	43.875550	649.165405	-239.968400	96.369292	633.807176	-326.776723
268	2.67000	88.485413	729.019085	132.657485	57.624653	1165.103890	-192.939463	56.444241	1195.296606	-361.944437	13.807031	731.638893	139.580246	163.163796	726.399277	125.734724	-77.704806	480.184427	-188.811441	198.425371	484.093332	-220.084687	-80.746033	161.547246	40.406681	246.609812	138.927527	-35.460820	-74.061675	124.593181	86.342547	252.389832	103.560045	11.866092	-146.342417	96.699839	-120.084440	253.379986	45.314155	-202.473900	-123.612307	1114.201120	-142.833077	242.189574	1119.249071	-180.408533	-92.936903	835.573386	-143.761056	194.494260	840.138367	-236.404208	48.411786	649.277506	-235.556025	83.222835	636.236144	-325.007428
269	2.68000	87.255392	729.234693	134.685238	56.757195	1165.288446	-190.953018	55.535631	1195.762098	-359.985938	12.613095	731.924287	141.527126	161.897704	726.545098	127.843332	-77.820257	479.925412	-187.325795	195.628098	484.401885	-219.037582	-82.617730	161.076064	42.531100	245.428371	138.924566	-34.272779	-76.221362	124.059840	88.587375	251.492643	103.538484	13.121998	-147.977353	96.567314	-118.186419	251.831413	45.249092	-201.250282	-124.531931	1113.958847	-141.395717	241.407730	1119.629083	-178.494131	-91.148205	834.878545	-143.148386	191.632426	840.467757	-234.880274	51.071758	648.295532	-233.558012	77.035618	637.109334	-324.043104
